<svg xmlns="http://www.w3.org/2000/svg" xmlns:xlink="http://www.w3.org/1999/xlink" width="793" zoomAndPan="magnify" viewBox="0 0 595.5 842.249979" height="1122" preserveAspectRatio="xMidYMid meet" version="1.0"><defs><clipPath id="9865fedd95"><path d="M 0.015625 0 L 594.984375 0 L 594.984375 841.5 L 0.015625 841.5 Z M 0.015625 0 " clip-rule="nonzero"/></clipPath><clipPath id="9bd2b0daf0"><path d="M 0.015625 127.554688 L 594.984375 127.554688 L 594.984375 723.023438 L 0.015625 723.023438 Z M 0.015625 127.554688 " clip-rule="nonzero"/></clipPath></defs><g clip-path="url(#9865fedd95)"><path fill="#ffffff" d="M 0.015625 0 L 595.484375 0 L 595.484375 848.957031 L 0.015625 848.957031 Z M 0.015625 0 " fill-opacity="1" fill-rule="nonzero"/><path fill="#ffffff" d="M 0.015625 0 L 595.484375 0 L 595.484375 842.207031 L 0.015625 842.207031 Z M 0.015625 0 " fill-opacity="1" fill-rule="nonzero"/><path fill="#f5f5f5" d="M 0.015625 0 L 595.484375 0 L 595.484375 842.207031 L 0.015625 842.207031 Z M 0.015625 0 " fill-opacity="1" fill-rule="nonzero"/></g><g clip-path="url(#9bd2b0daf0)"><path stroke-linecap="butt" transform="matrix(9.512296, 0, 0, 9.512296, -301.524656, -28.921783)" fill="none" stroke-linejoin="miter" d="M 65.465973 18.262127 C 83.353184 35.898019 83.353184 59.575022 65.465973 77.208861 M 40.012897 66.451813 C 53.766888 56.638855 72.231887 56.638855 85.987111 66.451813 M 61.046939 17.979187 C 43.036122 35.735811 43.036122 59.577897 61.046939 77.334931 M 62.84683 18.009986 C 46.453163 18.09417 33.230967 31.451882 33.315972 47.845959 C 33.398924 64.24209 46.757867 77.461823 63.153177 77.378871 C 79.546023 77.293866 92.76904 63.936975 92.684035 47.542076 C 92.601083 31.267088 79.428166 18.09417 63.153177 18.009986 Z M 63.000004 18.009986 L 63.000004 77.378871 M 92.684856 47.694018 L 33.315151 47.694018 M 40.012897 29.83391 C 53.766888 39.646046 72.231887 39.646046 85.987111 29.83391 " stroke="#000000" stroke-width="3.045" stroke-opacity="1" stroke-miterlimit="4"/></g></svg>