<svg xmlns="http://www.w3.org/2000/svg" xmlns:xlink="http://www.w3.org/1999/xlink" width="793" zoomAndPan="magnify" viewBox="0 0 594.95996 842.24997" height="1122" preserveAspectRatio="xMidYMid meet" version="1.0"><defs><clipPath id="33105d1204"><path d="M 0.246094 123.09375 L 594.675781 123.09375 L 594.675781 717.5625 L 0.246094 717.5625 Z M 0.246094 123.09375 " clip-rule="nonzero"/></clipPath></defs><g clip-path="url(#33105d1204)"><path fill="#b76e79" d="M 297.480469 123.09375 C 133.324219 123.09375 0.246094 256.171875 0.246094 420.328125 C 0.246094 584.488281 133.324219 717.5625 297.480469 717.5625 C 461.636719 717.5625 594.714844 584.488281 594.714844 420.328125 C 594.546875 256.238281 461.574219 123.261719 297.480469 123.09375 Z M 496.644531 604.410156 C 473.667969 590.300781 449.210938 578.746094 423.710938 569.960938 C 441.417969 526.488281 451.09375 480.175781 452.292969 433.25 L 568.539062 433.25 C 565.53125 496.996094 540.070312 557.632812 496.644531 604.410156 Z M 26.421875 433.25 L 142.667969 433.25 C 143.863281 480.175781 153.542969 526.488281 171.246094 569.960938 C 145.75 578.753906 121.292969 590.300781 98.296875 604.390625 C 54.890625 557.613281 29.429688 496.996094 26.421875 433.25 Z M 98.324219 236.230469 C 121.3125 250.3125 145.761719 261.855469 171.246094 270.652344 C 153.542969 314.140625 143.863281 360.472656 142.667969 407.410156 L 26.421875 407.410156 C 29.429688 343.652344 54.898438 283.015625 98.324219 236.230469 Z M 284.558594 264.839844 C 258.636719 264.113281 232.859375 260.621094 207.675781 254.425781 C 226.921875 216.527344 252.988281 182.503906 284.558594 154.054688 Z M 284.558594 290.679688 L 284.558594 407.410156 L 168.527344 407.410156 C 169.828125 363.007812 179.320312 319.242188 196.53125 278.296875 C 225.308594 285.773438 254.835938 289.925781 284.558594 290.679688 Z M 284.558594 433.25 L 284.558594 549.980469 C 254.808594 550.714844 225.234375 554.855469 196.429688 562.332031 C 179.28125 521.378906 169.835938 477.601562 168.5625 433.222656 Z M 284.558594 575.820312 L 284.558594 686.613281 C 252.886719 658.21875 226.773438 624.175781 207.546875 586.234375 C 232.777344 580.027344 258.589844 576.535156 284.558594 575.820312 Z M 310.398438 575.820312 C 336.316406 576.535156 362.082031 580.007812 387.261719 586.195312 C 368.019531 624.074219 341.964844 658.082031 310.398438 686.511719 Z M 310.398438 549.980469 L 310.398438 433.25 L 426.433594 433.25 C 425.132812 477.621094 415.632812 521.371094 398.417969 562.296875 C 369.644531 554.847656 340.113281 550.714844 310.398438 549.980469 Z M 310.398438 407.410156 L 310.398438 290.679688 C 340.113281 289.9375 369.652344 285.792969 398.417969 278.324219 C 415.632812 319.269531 425.132812 363.035156 426.433594 407.4375 Z M 310.398438 264.839844 L 310.398438 154.089844 C 341.972656 182.539062 368.027344 216.566406 387.273438 254.453125 C 362.089844 260.640625 336.324219 264.121094 310.398438 264.839844 Z M 347.636719 153.652344 C 395.910156 162.757812 440.804688 184.816406 477.492188 217.484375 C 457.078125 229.523438 435.460938 239.394531 413.003906 246.957031 C 396.125 212.691406 374.082031 181.222656 347.636719 153.652344 Z M 181.949219 246.9375 C 159.496094 239.367188 137.882812 229.503906 117.457031 217.492188 C 154.148438 184.824219 199.039062 162.765625 247.320312 153.664062 C 220.875 181.222656 198.824219 212.671875 181.949219 246.9375 Z M 181.949219 593.683594 C 198.835938 627.964844 220.90625 659.4375 247.367188 687.003906 C 199.058594 677.910156 154.128906 655.832031 117.421875 623.136719 C 137.855469 611.109375 159.480469 601.234375 181.949219 593.683594 Z M 413.003906 593.683594 C 435.472656 601.242188 457.09375 611.125 477.519531 623.15625 C 440.792969 655.859375 395.863281 677.9375 347.535156 687.023438 C 374.027344 659.453125 396.105469 627.964844 413.003906 593.671875 Z M 452.292969 407.417969 C 451.105469 360.484375 441.417969 314.152344 423.703125 270.671875 C 449.191406 261.875 473.636719 250.320312 496.617188 236.230469 C 540.050781 283.007812 565.53125 343.652344 568.539062 407.417969 Z M 452.292969 407.417969 " fill-opacity="1" fill-rule="nonzero"/></g></svg>